<?xml version="1.0" encoding="utf-8"?>
<!DOCTYPE svg PUBLIC "-//W3C//DTD SVG 1.1//EN" "http://www.w3.org/Graphics/SVG/1.1/DTD/svg11.dtd">
<svg version="1.1" id="Layer_1" xmlns="http://www.w3.org/2000/svg" xmlns:xlink="http://www.w3.org/1999/xlink" x="0px" y="0px"
	 width="100px" height="100px" viewBox="0 0 100 100" enable-background="new 0 0 100 100" xml:space="preserve">
<path d="M82.65625,37.984375C82.65625,22.796875,70.546875,17.578125,70.546875,17.578125C62.9375,13.859375,36.984375,13.90625,27.3125,17.578125C27.3125,17.578125,17.359375,22.796875,17.359375,37.984375C17.359375,56.0625,16.328125,78.515625,33.859375,83.15625C40.1875,84.828125,45.625,85.8125,50,85.5625C57.9375,85.125,62.390625,82.109375,62.390625,82.109375L62.125,76.34375C62.125,76.34375,56.453125,78.125,50.078125,77.921875C43.765625,77.703125,37.109375,77.234375,36.078125,69.484375C35.984375,68.765625,35.9375,68.03125,35.9375,67.304688C49.3125,70.578125,60.734375,68.734375,63.859375,68.398438C72.625,67.3125,80.265625,61.90625,81.234375,56.96875C82.765625,49.1875,82.640625,37.984375,82.640625,37.984375zM70.921875,57.546875L63.640625,57.546875L63.640625,39.703125C63.640625,31.9375,53.640625,31.640625,53.640625,40.78125L53.640625,50.546875L46.40625,50.546875L46.40625,40.78125C46.40625,31.640625,36.40625,31.9375,36.40625,39.703125L36.406625,57.546875L29.125,57.546875C29.125,38.46875,28.296875,34.4375,31.984375,30.203125C36.03125,25.6875,44.453125,25.390625,48.203125,31.15625L50.015625,34.203125L51.828125,31.15625C55.59375,25.359375,64.03125,25.71875,67.734375,30.203125C71.75,34.484375,70.921875,38.484375,70.921875,57.546875L70.921875,57.546875z"/>
</svg>
